<?xml version="1.0" encoding="iso-8859-1"?>
<!-- Uploaded to: SVG Repo, www.svgrepo.com, Generator: SVG Repo Mixer Tools -->
<svg fill="#000000" height="800px" width="800px" version="1.1" id="Layer_1" xmlns="http://www.w3.org/2000/svg" xmlns:xlink="http://www.w3.org/1999/xlink" 
	 viewBox="0 0 485 485" xml:space="preserve">
<g>
	<path d="M150.332,142.573C175.785,153.811,208.517,160,242.5,160s66.715-6.189,92.168-17.427
		c13.297-5.871,21.558-18.353,21.558-32.573s-8.261-26.702-21.558-32.573C309.215,66.189,276.483,60,242.5,60
		s-66.715,6.189-92.168,17.427c-13.297,5.871-21.558,18.353-21.558,32.573S137.034,136.702,150.332,142.573z M162.449,104.871
		C184.168,95.281,212.598,90,242.5,90s58.332,5.281,80.051,14.871c3.198,1.412,3.675,3.819,3.675,5.129s-0.478,3.717-3.675,5.129
		C300.832,124.719,272.402,130,242.5,130s-58.332-5.281-80.051-14.871c-3.198-1.412-3.675-3.819-3.675-5.129
		S159.251,106.283,162.449,104.871z"/>
	<path d="M242.5,0c-106.542,0-190,48.318-190,110v250c0,34.727,20.695,66.861,58.274,90.481C146.187,472.741,192.968,485,242.5,485
		s96.313-12.259,131.726-34.519C411.805,426.861,432.5,394.727,432.5,360V110C432.5,48.318,349.042,0,242.5,0z M125.913,56.008
		C156.807,39.236,198.212,30,242.5,30s85.693,9.236,116.587,26.008C386.677,70.985,402.5,90.664,402.5,110
		c0,21.411-18.742,42.569-51.421,58.049l-8.579,4.064V290c0,8.271-6.729,15-15,15s-15-6.729-15-15V182.273l-17.651,3.17
		C278.013,188.467,260.4,190,242.5,190c-1.596,0-3.185-0.015-4.771-0.039l-15.229-0.233V360c0,8.271-6.729,15-15,15s-15-6.729-15-15
		V186.136l-11.814-2.567c-29.887-6.495-55.158-17.386-73.081-31.496C96.152,143.057,82.5,128.438,82.5,110
		C82.5,90.664,98.323,70.985,125.913,56.008z M358.261,425.082C327.568,444.375,286.457,455,242.5,455
		s-85.068-10.625-115.761-29.918C98.211,407.15,82.5,384.037,82.5,360V170.06c19.087,17.232,46.505,31.2,80,39.994V360
		c0,24.813,20.187,45,45,45s45-20.187,45-45V219.854c10.124-0.296,20.148-1.044,30-2.236V290c0,24.813,20.187,45,45,45
		s45-20.187,45-45v-99.164c11.561-6.201,21.601-13.188,30-20.775V360C402.5,384.037,386.789,407.15,358.261,425.082z"/>
</g>
</svg>