<?xml version="1.0" encoding="iso-8859-1"?>
<!-- Uploaded to: SVG Repo, www.svgrepo.com, Generator: SVG Repo Mixer Tools -->
<svg fill="#000000" height="800px" width="800px" version="1.1" id="Layer_1" xmlns="http://www.w3.org/2000/svg" xmlns:xlink="http://www.w3.org/1999/xlink" 
	 viewBox="0 0 512 512" xml:space="preserve">
<g>
	<g>
		<path d="M456.348,166.957h-50.087V150.26C406.261,67.407,338.854,0,256,0S105.739,67.407,105.739,150.26v16.697H55.652
			c-9.22,0-16.696,7.475-16.696,16.696c0,9.22,7.475,16.696,16.696,16.696h16.696v228.174c0,46.03,37.448,83.478,83.478,83.478
			h200.348c46.03,0,83.478-37.448,83.478-83.478V200.348h16.696c9.22,0,16.696-7.475,16.696-16.696
			C473.043,174.432,465.568,166.957,456.348,166.957z M139.13,150.26c0-64.441,52.428-116.868,116.87-116.868
			S372.87,85.819,372.87,150.26v16.697H139.13V150.26z M222.609,233.739c-9.22,0-16.696,7.475-16.696,16.696v33.391v66.783
			c0,9.206-7.49,16.696-16.696,16.696s-16.696-7.49-16.696-16.696V200.348h100.174v83.478c0,9.206-7.49,16.696-16.696,16.696
			c-9.206,0-16.696-7.49-16.696-16.696v-33.391C239.304,241.214,231.829,233.739,222.609,233.739z M105.739,200.348h16.696h16.696
			v33.391h-33.391V200.348z M406.261,428.522c0,27.618-22.469,50.087-50.087,50.087H155.826c-27.618,0-50.087-22.469-50.087-50.087
			V267.13h33.391v83.478c0,27.618,22.469,50.087,50.087,50.087c27.618,0,50.087-22.469,50.087-50.087v-19.556
			c5.223,1.852,10.844,2.861,16.696,2.861c27.618,0,50.087-22.469,50.087-50.087V267.13h100.174V428.522z M406.261,233.739H306.087
			v-33.391h83.478h16.696V233.739z"/>
	</g>
</g>
</svg>