<?xml version="1.0" encoding="iso-8859-1"?>
<!-- Uploaded to: SVG Repo, www.svgrepo.com, Generator: SVG Repo Mixer Tools -->
<!DOCTYPE svg PUBLIC "-//W3C//DTD SVG 1.1//EN" "http://www.w3.org/Graphics/SVG/1.1/DTD/svg11.dtd">
<svg height="800px" width="800px" version="1.1" id="Capa_1" xmlns="http://www.w3.org/2000/svg" xmlns:xlink="http://www.w3.org/1999/xlink" 
	 viewBox="0 0 344.194 344.194" xml:space="preserve">
<g>
	<path style="fill:#222220;" d="M304.235,176.971L176.968,49.703c-7.993-7.993-19.945-9.663-29.603-5.02V29.973
		C147.365,13.446,133.919,0,117.392,0h-0.454c-16.527,0-29.973,13.446-29.973,29.973v92.11l-39.943,39.943
		c-19.531,19.53-19.531,51.309,0,70.839l60.834,60.834c9.765,9.765,22.592,14.648,35.419,14.648c12.828,0,25.655-4.883,35.42-14.648
		l76.686-76.686v68.834c0,12.419,10.104,22.523,22.523,22.523h0.303c12.419,0,22.523-10.104,22.523-22.523v-32.084
		c0-4.142-3.358-7.5-7.5-7.5s-7.5,3.358-7.5,7.5v32.084c0,4.148-3.375,7.523-7.523,7.523h-0.303c-4.148,0-7.523-3.375-7.523-7.523
		v-86.938c0-0.246-0.012-0.491-0.036-0.736c-0.005-0.054-0.017-0.106-0.023-0.16c-0.023-0.19-0.048-0.379-0.085-0.567
		c-0.01-0.048-0.024-0.095-0.035-0.143c-0.042-0.191-0.086-0.382-0.143-0.57c-0.01-0.034-0.024-0.066-0.035-0.1
		c-0.063-0.199-0.132-0.397-0.212-0.592c-0.009-0.021-0.02-0.041-0.029-0.062c-0.086-0.203-0.179-0.404-0.283-0.6
		c-0.014-0.026-0.03-0.05-0.044-0.075c-0.103-0.188-0.211-0.373-0.331-0.553c-0.037-0.056-0.081-0.108-0.12-0.163
		c-0.102-0.145-0.204-0.29-0.318-0.429c-0.158-0.193-0.325-0.379-0.503-0.557l-54.556-54.556l-8.276-8.276
		c-2.929-2.929-7.678-2.929-10.606,0c-2.929,2.929-2.929,7.678,0,10.606l8.276,8.276l49.252,49.252l-84.186,84.186
		c-6.628,6.628-15.44,10.278-24.813,10.278c-9.373,0-18.185-3.65-24.813-10.278L57.628,222.26
		C51,215.632,47.35,206.82,47.35,197.447c0-9.374,3.65-18.186,10.278-24.813l74.737-74.737v73.386c0,4.142,3.358,7.5,7.5,7.5
		s7.5-3.358,7.5-7.5V94l14.602,14.602l0.238,0.238v75.359c0,12.418,10.103,22.521,22.521,22.521h0.303
		c12.418,0,22.521-10.103,22.521-22.521c0-4.142-3.358-7.5-7.5-7.5s-7.5,3.358-7.5,7.5c0,4.147-3.374,7.521-7.521,7.521h-0.303
		c-4.147,0-7.521-3.374-7.521-7.521v-78.466c0-1.989-0.79-3.897-2.197-5.303l-2.435-2.435l-21.949-21.949
		c-4.266-4.266-4.266-11.207,0.005-15.478l0.258-0.258c4.266-4.266,11.208-4.266,15.474,0l127.268,127.268
		c4.266,4.266,4.266,11.207,0,15.473l-0.263,0.263c-0.874,0.873-1.931,1.585-3.233,2.175c-3.772,1.711-5.443,6.156-3.733,9.928
		c1.255,2.768,3.982,4.404,6.835,4.404c1.036,0,2.088-0.216,3.093-0.671c2.932-1.33,5.504-3.089,7.645-5.23l0.263-0.263
		C314.35,203.542,314.35,187.085,304.235,176.971z M101.965,107.083v-77.11c0-8.256,6.717-14.973,14.973-14.973h0.454
		c8.256,0,14.973,6.717,14.973,14.973v46.71L101.965,107.083z"/>
	<path style="fill:#222220;" d="M222.127,293.377c-14.01,0-25.409,11.398-25.409,25.409s11.398,25.408,25.409,25.408
		s25.408-11.398,25.408-25.408S236.137,293.377,222.127,293.377z M222.127,329.194c-5.739,0-10.409-4.669-10.409-10.408
		s4.669-10.409,10.409-10.409s10.408,4.669,10.408,10.409S227.866,329.194,222.127,329.194z"/>
</g>
</svg>